<svg width="100" height="100" viewBox="0 0 10 10" version="1.1" xmlns="http://www.w3.org/2000/svg">
    <defs>
        <clipPath id="cut-off-bottom">
            <ellipse cx="5" cy="6.7" rx="3.5" ry="2" />
        </clipPath>
        <clipPath id="cut-off">
            <ellipse cx="5" cy="4.9" rx="3.5" ry="2" />
        </clipPath>
    </defs>
    <circle cx="5" cy="5" r="5" fill="#3896d4" />
    <ellipse cx="5" cy="5.4" rx="4" ry="3" fill="snow" clip-path="url(#cut-off)" />
    <rect x="1.9" y="5.8" width="7" height="1.5" fill="#3896d4" />
    <ellipse cx="5" cy="4.9" rx="4" ry="1.5" fill="#000000" clip-path="url(#cut-off-bottom)" />
    <!-- <polygon points="5 0.8, 5.8 2.5, 4.2,2.5" fill="#e5b527"/>
    <polygon points="5 0.8, 5.8 2.5, 4.2,2.5" fill="#e5b527" transform="rotate(30 5 7)"/>
    <polygon points="5 0.8, 5.8 2.5, 4.2,2.5" fill="#e5b527" transform="rotate(-30 5 7)"/> -->

    <!-- <rect x="3" y="6.2" width="0.5" height="1" fill="#e5b527" rx="0.5" ry="0.5"/>
    <rect x="3.7" y="6.2" width="0.5" height="2.5" fill="#e5b527" rx="0.5" ry="0.5"/>
    <rect x="4.4" y="6.2" width="0.5" height="1" fill="#e5b527" rx="0.5" ry="0.5"/>
    <rect x="5.1" y="6.2" width="0.5" height="2.5" fill="#e5b527" rx="0.5" ry="0.5"/>
    <rect x="5.8" y="6.2" width="0.5" height="1" fill="#e5b527" rx="0.5" ry="0.5"/>
    <rect x="6.5" y="6.2" width="0.5" height="2.5" fill="#e5b527" rx="0.5" ry="0.5"/>
    <rect x="7.2" y="6.2" width="0.5" height="1" fill="#e5b527" rx="0.5" ry="0.5"/> -->
</svg>